<svg id="Capa_1" enable-background="new 0 0 497 497" viewBox="0 0 497 497" xmlns="http://www.w3.org/2000/svg"><g><g><g><g><path d="m476.797 455.641h-456.594c-11.158 0-20.203-9.045-20.203-20.203v-373.876c0-11.158 9.045-20.203 20.203-20.203h456.594c11.158 0 20.203 9.045 20.203 20.203v373.875c0 11.159-9.045 20.204-20.203 20.204z" fill="#eaf6ff"/></g></g><g><g><path d="m476.797 41.359h-32.325c11.158 0 20.203 9.045 20.203 20.203v20.203l-6.077 8.081 6.077 8.081v48.488l-8.142 8.081 8.142 8.081v48.488l-9.925 8.081 9.925 8.081v208.209c0 11.158-9.045 20.203-20.203 20.203h32.325c11.158 0 20.203-9.045 20.203-20.203v-373.874c0-11.158-9.045-20.203-20.203-20.203z" fill="#d8ecfe"/></g></g><g><g><g><path d="m65.729 138.334 13.703 5.044 27.781-13.327 3.566-21.211-2.816-13.703-6.33-7.275c-4.173-1.964-8.831-3.068-13.749-3.068-17.853 0-32.325 14.473-32.325 32.325 0 4.918 1.103 9.576 3.068 13.749z" fill="#fed2a4"/></g></g><g><g><path d="m101.633 87.864c1.964 4.173 3.068 8.831 3.068 13.749 0 17.853-14.473 32.325-32.325 32.325-4.918 0-9.576-1.103-13.749-3.067 5.167 10.976 16.323 18.577 29.258 18.577 17.853 0 32.325-14.473 32.325-32.325-.001-12.937-7.601-24.092-18.577-29.259z" fill="#ffbd86"/></g></g><g><g><path d="m106.335 224.148 1.534-.125 3.238-1.009 7.461-5.866 4.317-22.149 1.408-11.638-10.042-23.088-9.761-6.992-13.046-3.332-6.054-.502h-2.557-18.183c-17.853 0-32.325 14.473-32.325 32.325v32.325c0 5.579 4.523 10.102 10.102 10.102h63.046z" fill="#fd8087"/></g></g><g><g><path d="m111.118 149.446h-28.285c17.853 0 32.325 14.473 32.325 32.325v32.325c0 5.579-4.523 10.102-10.102 10.102h28.285c5.579 0 10.102-4.523 10.102-10.102v-32.325c0-17.852-14.472-32.325-32.325-32.325z" fill="#fe646f"/></g></g></g><g><g><g><path d="m441.893 400.534-55-132.783c-42.958 0-77.782 34.824-77.782 77.782s34.824 77.783 77.782 77.783c21.478 0 40.924-8.706 55-22.782z" fill="#cb97e7"/></g></g><g><g><path d="m362.162 409.27c-8.864 0-17.373-1.503-25.31-4.234 13.526 11.393 30.97 18.28 50.04 18.28 21.479 0 40.925-8.706 55-22.782l-12.444-30.043c-13.466 23.181-38.547 38.779-67.286 38.779z" fill="#bd80e1"/></g></g><g><g><path d="m438.655 300.396-17.223-22.806-9.152-5.567v-.01c-7.959-2.748-16.494-4.261-25.387-4.261v73.64c0 1.445.323 2.853.91 4.142l52.025 12.3 7.884-22.243z" fill="#6cf5c2"/></g></g><g><g><path d="m439.945 331.488c0 4.798-.457 9.487-1.289 14.046l11.59 7.795 14.43-7.795c0-34.063-21.91-62.984-52.395-73.511 16.911 14.267 27.664 35.606 27.664 59.465z" fill="#00f2a6"/></g></g><g><g><path d="m444.472 375.009 5.773-16.331-11.59-13.145h-50.853c.491 1.078 1.165 2.075 2.019 2.929l32.424 32.424z" fill="#fd8087"/></g></g><g><g><path d="m438.655 345.533c-2.42 13.261-8.181 25.355-16.411 35.352l19.648 19.648c14.076-14.076 22.782-33.521 22.782-55.001h-26.019z" fill="#fe646f"/></g></g></g><g><g><g><path d="m200.012 106.009h-16.162c-4.463 0-8.081-3.618-8.081-8.081v-16.162c0-4.463 3.618-8.081 8.081-8.081h16.163c4.463 0 8.081 3.618 8.081 8.081v16.163c0 4.462-3.619 8.08-8.082 8.08z" fill="#00f2a6"/></g></g><g><g><path d="m200.012 170.66h-16.162c-4.463 0-8.081-3.618-8.081-8.081v-16.163c0-4.463 3.618-8.081 8.081-8.081h16.163c4.463 0 8.081 3.618 8.081 8.081v16.163c0 4.463-3.619 8.081-8.082 8.081z" fill="#00f2a6"/></g></g><g><g><path d="m200.012 235.31h-16.162c-4.463 0-8.081-3.618-8.081-8.081v-16.163c0-4.463 3.618-8.081 8.081-8.081h16.163c4.463 0 8.081 3.618 8.081 8.081v16.163c0 4.463-3.619 8.081-8.082 8.081z" fill="#00f2a6"/></g></g></g><g><g><path d="m456.594 106.009h-60.61v-32.325h60.61c4.463 0 8.081 3.618 8.081 8.081v16.163c0 4.463-3.618 8.081-8.081 8.081z" fill="#c4e2ff"/></g></g><g><g><path d="m395.984 106.009h-147.484c-4.463 0-8.081-3.618-8.081-8.081v-16.162c0-4.463 3.618-8.081 8.081-8.081h147.484c4.463 0 8.081 3.618 8.081 8.081v16.163c0 4.462-3.618 8.08-8.081 8.08z" fill="#fd8087"/></g></g><g><g><path d="m456.594 170.66h-111.118v-32.325h111.118c4.463 0 8.081 3.618 8.081 8.081v16.163c0 4.463-3.618 8.081-8.081 8.081z" fill="#c4e2ff"/></g></g><g><g><path d="m345.476 170.66h-96.976c-4.463 0-8.081-3.618-8.081-8.081v-16.163c0-4.463 3.618-8.081 8.081-8.081h96.976c4.463 0 8.081 3.618 8.081 8.081v16.163c0 4.463-3.618 8.081-8.081 8.081z" fill="#60b7ff"/></g></g><g><g><path d="m456.594 235.31h-80.813v-32.325h80.813c4.463 0 8.081 3.618 8.081 8.081v16.163c0 4.463-3.618 8.081-8.081 8.081z" fill="#c4e2ff"/></g></g><g><g><path d="m375.781 235.31h-127.281c-4.463 0-8.081-3.618-8.081-8.081v-16.163c0-4.463 3.618-8.081 8.081-8.081h127.281c4.463 0 8.081 3.618 8.081 8.081v16.163c0 4.463-3.618 8.081-8.081 8.081z" fill="#ffd15b"/></g></g><g><g><g><path d="m88.894 393.011-18.007 13.423-14.318-13.423v-62.63c0-4.463 3.618-8.081 8.081-8.081h16.163c4.463 0 8.081 3.618 8.081 8.081z" fill="#fd8087"/></g></g><g><g><path d="m153.545 393.011-14.746 16.48-17.579-16.48v-32.325c0-4.463 3.618-8.081 8.081-8.081h16.163c4.463 0 8.081 3.618 8.081 8.081z" fill="#cb97e7"/></g></g><g><g><path d="m218.195 393.011-15.357 15.908-16.968-15.908v-78.793c0-4.463 3.618-8.081 8.081-8.081h16.163c4.463 0 8.081 3.618 8.081 8.081z" fill="#6cf5c2"/></g></g><g><g><path d="m56.569 393.011h32.325v30.305h-32.325z" fill="#fe646f"/></g></g><g><g><path d="m121.22 393.011h32.325v30.305h-32.325z" fill="#bd80e1"/></g></g><g><g><path d="m185.87 393.011h32.325v30.305h-32.325z" fill="#00f2a6"/></g></g></g></g><g><g><g><path d="m242.439 430.815h-210.114c-4.143 0-7.5-3.357-7.5-7.5s3.357-7.5 7.5-7.5h210.114c4.143 0 7.5 3.357 7.5 7.5s-3.357 7.5-7.5 7.5z" fill="#b3dafe"/></g></g><g><g><path d="m143.443 275.251h-111.118c-4.143 0-7.5-3.357-7.5-7.5s3.357-7.5 7.5-7.5h111.118c4.143 0 7.5 3.357 7.5 7.5s-3.357 7.5-7.5 7.5z" fill="#b3dafe"/></g></g></g></g><g/><g/><g/><g/><g/><g/><g/><g/><g/><g/><g/><g/><g/><g/><g/></svg>