<?xml version="1.0" encoding="iso-8859-1"?>
<!-- Generator: Adobe Illustrator 19.0.0, SVG Export Plug-In . SVG Version: 6.00 Build 0)  -->
<!-- License: CC0. Made by SVG Repo: https://www.svgrepo.com/svg/261604/referee -->
<svg version="1.1" id="Layer_1" width="30" height="30" fill="#FFF" 
xmlns="http://www.w3.org/2000/svg" xmlns:xlink="http://www.w3.org/1999/xlink" 
	 viewBox="0 0 480 480" style="enable-background:new 0 0 480 480;" xml:space="preserve">
<g>
	<g>
		<path d="M392,296h-40c-28.4,0-51.872-21.264-55.464-48.696c5.8-3.776,11.272-8.128,16.328-13.088
			C332.944,214.496,344,188.144,344,160V56c0-30.88-25.12-56-56-56h-40h-8H104c-4.416,0-8,3.584-8,8v8
			c0,30.816,15.952,57.936,40,73.664v67.152c0,37.384,19.04,70.544,47.576,89.76C180.312,274.36,156.648,296,128,296H88
			c-48.52,0-88,39.48-88,88v96h16v-96c0-17.088,6.016-32.792,16-45.152V480h16V324.176c7.192-4.824,15.304-8.336,24-10.32V480h16
			V312h24v168h16V312c8.424,0,16.48-1.528,24-4.2V480h16V299.824c0.104-0.072,0.216-0.136,0.32-0.208
			c7.12,6.672,15.104,12.224,23.68,16.648V480h16V323.024c7.744,2.488,15.8,3.984,24,4.616V480h16V327.64
			c8.2-0.632,16.256-2.128,24-4.616V480h16V316.264c8.576-4.424,16.56-9.976,23.68-16.648c0.104,0.072,0.216,0.136,0.32,0.208V480
			h16V307.8c7.52,2.672,15.576,4.2,24,4.2v168h16V312h24v168h16V313.856c8.696,1.984,16.808,5.496,24,10.32V480h16V338.848
			c9.984,12.36,16,28.064,16,45.152v96h16v-96C480,335.48,440.52,296,392,296z M112,16h128h8h40c22.056,0,40,17.944,40,40v86.864
			c-13.76-3.576-24-16-24-30.864V96c0-4.416-3.584-8-8-8H184C144.304,88,112,55.696,112,16z M152,156.816V97.888
			c9.936,3.896,20.704,6.112,32,6.112h104v8c0,23.736,17.336,43.448,40,47.28V160c0,23.808-9.36,46.112-26.352,62.8
			c-16.992,16.672-39.808,25.672-63.296,25.184C190.736,247.112,152,206.216,152,156.816z M239.992,312.072
			c-22.072,0-43.296-8.264-59.544-22.912c8.816-9.4,15.168-21.12,17.944-34.176c12.216,5.552,25.608,8.744,39.664,9
			c0.656,0.016,1.304,0.016,1.96,0.016c14.584,0,28.664-3.064,41.64-8.744c2.808,12.944,9.128,24.568,17.88,33.904
			C283.296,303.808,262.064,312.072,239.992,312.072z"/>
	</g>
</g>
<g>
	<g>
		<path d="M288,168c0,22.056-17.944,40-40,40v16c30.88,0,56-25.12,56-56H288z"/>
	</g>
</g>
</svg>
