<?xml version="1.0" encoding="iso-8859-1"?>
<!-- Generator: Adobe Illustrator 16.0.0, SVG Export Plug-In . SVG Version: 6.00 Build 0)  -->
<!DOCTYPE svg PUBLIC "-//W3C//DTD SVG 1.1//EN" "http://www.w3.org/Graphics/SVG/1.1/DTD/svg11.dtd">
<!-- License: CC0. Made by SVG Repo: https://www.svgrepo.com/svg/119296/football-referee-raising-card -->
<svg version="1.1" id="Capa_1" xmlns="http://www.w3.org/2000/svg" xmlns:xlink="http://www.w3.org/1999/xlink"
	 fill="#FFF" width="30px" height="30px" viewBox="0 0 300 300" style="enable-background:new 0 0 288.722 288.722;"
	 xml:space="preserve">
<g>
	<g>
		<path d="M107.91,181.851c-13.776,2.314-26.652,7.011-38.232,13.639v93.228h38.232V181.851z"/>
		<path d="M174.897,190.192c-13.681-6.069-28.812-9.601-44.786-9.947v108.477h44.786V190.192z"/>
		<path d="M47.484,211.93c-20.479,19.656-33.14,46.801-33.14,76.787h33.14V211.93z"/>
		<path d="M201.15,253.065c-1.419-0.312-2.761-0.771-4.055-1.306v36.957h43.584c0-9.699-1.372-19.071-3.862-28.014L201.15,253.065z"
			/>
		<path d="M186.771,219.241c-2.454,11.454,4.842,22.732,16.296,25.187l33.699,7.224c11.454,2.46,22.731-4.842,25.187-16.296
			l11.95-55.731c2.455-11.449-4.847-22.728-16.295-25.187l-33.694-7.221c-11.454-2.455-22.732,4.844-25.187,16.293L186.771,219.241z
			"/>
		<path d="M148.833,38.512c12.704-10.006,24.106-13.867,34.008-11.565C169.905,10.421,151.404,0,130.805,0
			C97.23,0,69.181,27.519,61.9,64.413C82.902,65.369,118.323,62.541,148.833,38.512z"/>
		<path d="M130.805,166.591c39.105,0,70.811-37.285,70.811-83.296c0-1.67-0.124-3.304-0.207-4.953
			c-1.066-10.682-5.955-34.73-18.486-40.26c-6.979-3.071-16.238-0.127-27.517,8.753C121.44,73.591,82.897,76.344,60.357,75.067
			c-0.223,2.703-0.35,5.444-0.35,8.223C60.002,129.306,91.7,166.591,130.805,166.591z"/>
	</g>
</g>
</svg>
