<svg id="Capa_1" width="30px" height="30px" fill="#FFF" enable-background="new 0 0 508 508" 
viewBox="0 0 508 508" xmlns="http://www.w3.org/2000/svg">
<path d="m392.498 56.655c-4.541-7.865-11.873-13.491-20.646-15.842l-41.178-11.033c-.945-7.677-4.464-14.765-10.128-20.24-6.475-6.257-15.265-9.54-24.27-9.54h-151.344c-9.279 0-17.995 3.697-24.459 10.387-6.257 6.475-9.541 15.265-9.541 24.269v57.714c0 5.741 4.847 10.358 10.67 9.978 5.314-.347 9.33-4.999 9.33-10.324v-58.024c.01-7.71 6.29-13.99 14-14h152c7.7.01 13.99 6.29 14 14v228c-.01 7.71-6.3 13.99-14 14h-20.714c1.11-3.129 1.714-6.495 1.714-10 0-16.542-13.458-30-30-30h-72.299c-14.087 0-26.512 8.474-31.653 21.587l-6.406 16.336c-4.008-2.473-6.655-6.903-6.642-11.923v-79.63c0-5.511-4.49-10-10-10s-10 4.489-10 10v79.63c.015 13.447 7.853 25.155 19.294 30.659l-14.484 36.934c-4.51 11.499-5.217 24.397-1.989 36.325l36.527 134.699c1.182 4.357 5.137 7.383 9.651 7.383h108c4.684 0 8.74-3.251 9.76-7.822l15.805-70.844c5.971-4.991 10.017-12.26 10.75-20.574l.867-9.827c.108-1.229.15-2.457.127-3.677l.962-32.231c.12-4.002-.475-7.943-1.702-11.66 5.037-1.855 9.633-5.072 13.167-9.57 4.615-5.872 6.839-13.052 6.369-20.425 6.219-4.539 10.822-11.126 12.847-18.684l59.011-220.23c2.351-8.773 1.145-17.935-3.396-25.801zm-90.556 272.783c-3.385 4.307-9.675 5.1-14.022 1.77l-.073-.056-25.099-19.231c-9.983-7.65-23.297-9.169-34.749-3.965l-38.229 17.378c-5.027 2.285-7.25 8.214-4.965 13.242 2.286 5.026 8.21 7.249 13.242 4.965l38.229-17.378c4.715-2.142 10.198-1.518 14.309 1.633l30.15 23.103c2.779 2.13 4.638 5.22 5.257 8.606l-3.067-3.948c-8.793-11.319-23.851-15.915-37.469-11.441l-32.597 10.717c-5.247 1.726-8.102 7.377-6.377 12.623 1.725 5.247 7.376 8.101 12.623 6.377l32.597-10.717c5.606-1.848 11.807.051 15.429 4.711l15.173 19.53c1.813 2.335 2.829 5.149 2.935 8.068.001.083.004.166.007.249.01.498-.008 1-.052 1.502l-.867 9.827c-.479 5.438-5.18 9.556-10.583 9.377-2.886-.094-5.52-1.344-7.417-3.519s-2.778-4.955-2.48-7.825l1.213-11.67c.571-5.494-3.419-10.41-8.912-10.98-5.491-.584-10.409 3.419-10.98 8.912l-1.213 11.671c-.865 8.331 1.796 16.729 7.303 23.041 5.146 5.899 12.437 9.584 20.203 10.262l-11.543 51.728h-92.336l-34.523-127.311c-2.113-7.811-1.65-16.262 1.304-23.795l28.237-72.006c2.117-5.399 7.233-8.889 13.034-8.889h72.299c5.514 0 10 4.486 10 10s-4.486 10-10 10h-20.633c-13.014 0-25.8 4.448-36.001 12.525l-18.906 14.967c-4.33 3.428-5.062 9.718-1.634 14.048 3.427 4.329 9.717 5.062 14.048 1.634l18.907-14.968c6.684-5.292 15.06-8.206 23.586-8.206h34.219c8.155 0 15.939 2.554 22.511 7.386l15.964 11.737c1.477 1.086 2.602 2.513 3.297 4.151.065.205.138.409.218.612.032.081.064.161.099.24.18.562.312 1.144.394 1.741.368 2.723-.363 5.411-2.06 7.572zm15.623-31.928c-.449 1.676-1.183 3.216-2.157 4.571-1.097-1.104-2.288-2.131-3.567-3.071l-6.169-4.536c5.477-1.353 10.589-3.979 14.799-7.81zm59.011-220.231-45.644 170.344v-197.069l35.744 9.577c7.457 1.999 11.898 9.691 9.9 17.148zm-255.644 70.091c-5.521 0-10-4.48-10-10 0-5.511 4.479-10 10-10 5.51 0 10 4.489 10 10 0 5.52-4.49 10-10 10z"/></svg>