<?xml version="1.0"?>
<svg xmlns="http://www.w3.org/2000/svg" viewBox="0 0 48 48" width="30" height="30" fill="#FFF">
<g id="_21-Referee" data-name="21-Referee">
<path d="M32,29a9.01,9.01,0,0,1-9-9V11h2v9a7,7,0,0,0,14,0V3a1,1,0,0,0-1-1H36.414l-.707.707a1,1,0,0,1-1.414,0L33.586,2H22.414l3.293,3.293L24.293,6.707l-5-5A1,1,0,0,1,20,0H34a1,1,0,0,1,.707.293L35,.586l.293-.293A1,1,0,0,1,36,0h2a3,3,0,0,1,3,3V20A9.01,9.01,0,0,1,32,29Z"/>
<path d="M20,51H11a1,1,0,0,1-.978-1.21L13,35.883c.179-4.393,10.457-4.844,13.539-4.88A6.662,6.662,0,0,0,28,27h2a8.646,8.646,0,0,1-2.293,5.707A1,1,0,0,1,27,33c-5.8,0-12,1.208-12,3a.992.992,0,0,1-.022.21L12.237,49H20Z"/>
<path d="M45,63H43V44a1,1,0,0,1,1.707-.707L50,48.586l4.793-4.793,1.414,1.414-5.5,5.5a1,1,0,0,1-1.414,0L45,46.414Z"/>
<path d="M54.292,41.706l-5-5A1,1,0,0,1,49,36c0-1.792-6.2-3-12-3a1,1,0,0,1-.707-.293A8.646,8.646,0,0,1,34,27h2a6.584,6.584,0,0,0,1.456,4c3,.035,12.835.463,13.508,4.547l4.742,4.742Z"/>
<path d="M32,38a1,1,0,0,1-.707-.293l-5-5,1.414-1.414L32,35.586l4.293-4.293,1.414,1.414-5,5A1,1,0,0,1,32,38Z"/>
<path d="M37,41a.994.994,0,0,1-.514-.143L32,38.166l-4.485,2.691a1,1,0,0,1-1.372-.342l-3-5A1,1,0,0,1,23,35V32h2v2.723l2.343,3.905,4.142-2.485a1,1,0,0,1,1.03,0l4.142,2.485L39,34.723V32h2v3a1,1,0,0,1-.143.515l-3,5A1,1,0,0,1,37,41Z"/><rect x="19" y="44" width="2" height="19"/>
<path d="M40,12c-6.1,0-9.1-1.229-10.579-2.473A5.076,5.076,0,0,1,25,12H24a1,1,0,0,1-.707-.293l-4-4a1,1,0,0,1,0-1.414l3-3,1.414,1.414L21.414,7l3,3H25a2.852,2.852,0,0,0,3-3,1,1,0,0,1,2,0c.086.8,2.054,3,10,3Z"/>
<path d="M40,20V18a3,3,0,0,0,0-6V10a5,5,0,0,1,0,10Z"/>
<path d="M24,20a5,5,0,0,1,0-10v2a3,3,0,0,0,0,6Z"/><rect x="31" y="37" width="2" height="4"/>
<path d="M28,50H24a1,1,0,0,1-1-1V45a1,1,0,0,1,1-1h4a1,1,0,0,1,1,1v4A1,1,0,0,1,28,50Zm-3-2h2V46H25Z"/>
<path d="M34,26H30a1,1,0,0,1-1-1V21a1,1,0,0,1,1-1h4a1,1,0,0,1,1,1v4A1,1,0,0,1,34,26Zm-3-2h2V22H31Z"/>
<path d="M30,24H21a1,1,0,0,1-1-1V18h2v4h8Z"/>
<path d="M61,56H57a1,1,0,0,1-.989-.852l-3-20A1,1,0,0,1,54,34h6a1,1,0,0,1,.986.836l3,18A.9.9,0,0,1,64,53,3,3,0,0,1,61,56Zm-3.139-2H61a1,1,0,0,0,1-.932L59.153,36H55.161Z"/>
<rect x="53" y="47.757" width="2" height="8.485" transform="translate(-20.953 53.414) rotate(-45)"/>
<rect x="13" y="50" width="2" height="13"/>
<path d="M53.293,35.707l-3-3A1,1,0,0,1,50,32V28a1,1,0,0,1,.293-.707l2-2A1,1,0,0,1,53,25h5a1,1,0,0,1,1,1,4.226,4.226,0,0,1-1.27,3A3.789,3.789,0,0,1,59,32H57a1.883,1.883,0,0,0-2-2,1,1,0,0,1,0-2,1.789,1.789,0,0,0,1.779-1H53.414L52,28.414v3.172l2.707,2.707Z"/>
<path d="M52,28H50V18.5a2.5,2.5,0,0,1,5,0V26H53V18.5a.5.5,0,0,0-1,0Z"/>
<path d="M58,26H56V23.5a.5.5,0,0,0-1,0V26H53V23.5a2.5,2.5,0,0,1,5,0Z"/>
<path d="M60,27H57a1,1,0,0,1-1-1V23.5a2.5,2.5,0,0,1,5,0V26A1,1,0,0,1,60,27Zm-2-2h1V23.5a.5.5,0,0,0-1,0Z"/>
<path d="M63,27H60a1,1,0,0,1-1-1V23.5a2.5,2.5,0,0,1,5,0V26A1,1,0,0,1,63,27Zm-2-2h1V23.5a.5.5,0,0,0-1,0Z"/>
<path d="M60.707,35.707l-1.414-1.414L61,32.586V26h2v7a1,1,0,0,1-.293.707Z"/>
<rect x="54" y="38" width="7" height="2"/>
</g></svg>
