<?xml version="1.0" encoding="iso-8859-1"?>
<!-- Generator: Adobe Illustrator 19.0.0, SVG Export Plug-In . SVG Version: 6.00 Build 0)  -->
<!-- License: CC0. Made by SVG Repo: https://www.svgrepo.com/svg/170034/search-results -->
<svg fill="#FFF" height="30px" width="30px" version="1.1" id="Capa_1" xmlns="http://www.w3.org/2000/svg" xmlns:xlink="http://www.w3.org/1999/xlink"
	 viewBox="0 0 502.664 502.664" style="enable-background:new 0 0 502.664 502.664;" xml:space="preserve">
<g>
	<g>
		<g>
			<path d="M502.664,154.144c-0.043-64.195-52.072-116.202-116.245-116.202c-60.161,0-109.04,45.838-115.059,104.381H34.492
				C15.531,142.302,0,157.833,0,176.793v249.25c0,19.004,15.531,34.492,34.492,34.492h249.25c19.004,0,34.578-15.488,34.578-34.492
				v-178.11c14.258,10.354,30.911,17.515,49.009,20.514l0.496,27.05l-16.61,5.565v148.601c0,0,15.962,16.394,36.886,14.97
				c20.881-1.402,33.435-14.927,33.435-14.927l0.022-148.623l-15.509-3.818l-0.453-28.819
				C460.622,259.215,502.621,211.738,502.664,154.144z M386.397,243.641c-49.376,0-89.454-40.079-89.454-89.519
				s40.035-89.454,89.497-89.454c49.375-0.065,89.454,39.992,89.497,89.519C475.895,203.584,435.902,243.641,386.397,243.641z
				 M258.785,392.199H59.449v-22.692h199.336V392.199z M258.785,312.797H59.449v-22.736h199.336V312.797z M258.785,233.417H59.449
				v-22.736h199.336V233.417z"/>
		</g>
	</g>
	<g>
	</g>
	<g>
	</g>
	<g>
	</g>
	<g>
	</g>
	<g>
	</g>
	<g>
	</g>
	<g>
	</g>
	<g>
	</g>
	<g>
	</g>
	<g>
	</g>
	<g>
	</g>
	<g>
	</g>
	<g>
	</g>
	<g>
	</g>
	<g>
	</g>
</g>
</svg>
