<svg width="30px" height="30px" viewBox="0 0 30 30"
xmlns="http://www.w3.org/2000/svg" 
xml:space="preserve" version="1.1" xmlns:xlink="http://www.w3.org/1999/xlink">
<path d="M12.825 4.822c1.332 0 2.411 -1.08 2.411 -2.41C15.235 1.079 14.156 0 12.825 0c-1.333 0 -2.411 1.079 -2.411 2.411 0 1.33 1.079 2.41 2.411 2.41zm2.089 1.142h-4.227c-1.168 0 -2.439 1.271 -2.439 2.439v8.103c0 0.584 0.473 1.058 1.057 1.058h0.738l0.402 6.91c0 0.622 0.504 1.126 1.126 1.126h2.459c0.622 0 1.126 -0.504 1.126 -1.126l0.402 -6.91h0.738c0.584 0 1.057 -0.474 1.057 -1.058V8.403c0 -1.169 -1.271 -2.439 -2.439 -2.439zm-9.706 1.49c1.163 0 2.105 -0.943 2.105 -2.105 0 -1.163 -0.942 -2.106 -2.105 -2.106 -1.163 0 -2.105 0.943 -2.105 2.106 0 1.163 0.942 2.105 2.105 2.105zm15.229 0c1.163 0 2.105 -0.943 2.105 -2.105 0 -1.163 -0.942 -2.106 -2.105 -2.106 -1.163 0 -2.105 0.943 -2.105 2.106 0 1.163 0.943 2.105 2.105 2.105zm-13.573 0.997H3.339c-1.02 0 -2.13 1.111 -2.13 2.131v7.076c0 0.511 0.413 0.924 0.923 0.924h0.644l0.351 6.035c0 0.543 0.44 0.983 0.983 0.983h2.147c0.543 0 0.983 -0.44 0.983 -0.983l0.351 -6.035v-0.342c-0.449 -0.443 -0.73 -1.054 -0.73 -1.733V8.451zm15.398 0h-3.523v8.055c0 0.679 -0.281 1.29 -0.731 1.733v0.342l0.351 6.035c0 0.543 0.441 0.983 0.984 0.983h2.147c0.543 0 0.983 -0.44 0.983 -0.983l0.352 -6.035h0.644c0.51 0 0.923 -0.413 0.923 -0.924V10.582c0 -1.02 -1.11 -2.131 -2.13 -2.131z" style="fill:#FFF"></path></svg>