<svg id="svg5028" height="512" viewBox="0 0 16.933333 16.933334" width="512" xmlns="http://www.w3.org/2000/svg" xmlns:svg="http://www.w3.org/2000/svg"><g id="layer1" transform="translate(0 -280.067)"><path id="path2274" d="m3.9692594 280.5953c-.4351602 0-.7953005.35962-.7953005.79478v1.05885h-1.585431c-.5817394 0-1.05885199.47453-1.05885199 1.05627v1.85363 9.52552c0 .58174.47710989 1.05627 1.05885199 1.05627h13.7572991c.58175 0 1.058831-.47454 1.058849-1.05627v-9.52552-1.85363c0-.58174-.477099-1.05627-1.058849-1.05627h-1.5875v-1.05885c0-.43516-.358074-.79478-.793234-.79478s-.794782.35962-.794782.79478v1.05885h-7.4083335v-1.05885c0-.43516-.3575579-.79478-.7927181-.79478zm0 .52917c.1511538 0 .2635515.11446.2635515.26561v1.85157c0 .15115-.1123977.26355-.2635515.26355-.1511512 0-.2656152-.1124-.2656152-.26355v-1.85157c0-.15115.114464-.26561.2656152-.26561zm8.9958336 0c.151161 0 .264067.11446.264067.26561v1.85157c0 .15115-.112906.26355-.264067.26355-.151149 0-.265615-.1124-.265615-.26355v-1.85157c0-.15115.114466-.26561.265615-.26561zm-11.3765651 1.85363h1.585431v.26355c0 .43516.3601403.79272.7953005.79272s.7927181-.35756.7927181-.79272v-.26355h7.4083335v.26355c0 .43516.359622.79272.794782.79272s.793234-.35756.793234-.79272v-.26355h1.5875c.297741 0 .529682.22936.529682.5271v1.58802h-14.8166664v-1.58802c0-.29773.2319496-.5271.5296853-.5271zm-.5296853 2.64428h14.8166664v9.26197c-.000008.29774-.231941.5271-.529682.5271h-13.7572991c-.2977357 0-.5296853-.22937-.5296853-.5271zm7.4083335.96119c-2.1696892 0-3.9356771 1.76392-3.9356771 3.93361s1.7659879 3.93515 3.9356771 3.93515c2.1696889 0 3.9336109-1.76546 3.9336109-3.93515s-1.763922-3.93361-3.9336109-3.93361zm0 .52916c.2712217 0 .5338073.035.7865163.0946l-.5741247.14728-.5115983-.22686c.098732-.009.1982205-.015.2992067-.015zm-1.1684026.20929 1.0691839.47387-.1446927 1.19476-1.2361016.88935-.9301745-.39997.020161-1.38958c.3434238-.33783.7596055-.60005 1.2216315-.76843zm2.8117135.21239c.425985.2347.793277.55947 1.082622.94671l-.17105 1.10588-1.0588496.31936-1.2071612-.88832.1457272-1.17254zm-4.5836943 2.02572-.4371816.53227c.058883-.47411.215347-.91649.4480322-1.30897zm6.0879963-.34158c.117168.28452.196223.58841.232542.90588l-.310573-.40359zm-3.143996.24753 1.1311994.83199c-.146902.44373-.294087.88738-.440801 1.33118l-1.4045644-.008-.4263311-1.33687zm-2.6003568.51108.9343099.39997.4681881 1.46865-.5105638.78806-1.1482493-.25735c-.2779924-.42611-.4623753-.91825-.5260658-1.44849zm5.2885658.1204.677995.88057c-.06995.51794-.253738.99897-.528651 1.41542l-1.016992.18861-.6413026-.74672c.156342-.47424.313642-.94816.4707706-1.42213zm-3.4535349 2.05517 1.5244553.008c.213757.24867.426265.49841.639236.74776l-.499195.88987c-.287771.0788-.5896238.12453-.9027873.12453-.2425515 0-.4788376-.0259-.7069323-.0739l-.5606891-.91622zm3.0509769.88212c-.181243.16504-.379355.3115-.593246.4346l.20257-.36122zm-4.5645814.0139.5317517.11886.2495973.40824c-.2853743-.13942-.5477351-.31708-.781349-.5271z" font-variant-ligatures="normal" font-variant-position="normal" font-variant-caps="normal" font-variant-numeric="normal" font-variant-alternates="normal" font-feature-settings="normal" text-indent="0" text-align="start" text-decoration-line="none" text-decoration-style="solid" text-decoration-color="rgb(0,0,0)" text-transform="none" text-orientation="mixed" white-space="normal" shape-padding="0" isolation="auto" mix-blend-mode="normal" solid-color="rgb(0,0,0)" solid-opacity="1" vector-effect="none"/></g></svg>