<svg id="Layer_3" height="512" viewBox="0 0 64 64" width="512" xmlns="http://www.w3.org/2000/svg" data-name="Layer 3"><path d="m50 62v-60h-5a4 4 0 0 1 -8 0h-6a4 4 0 0 1 -8 0h-6a4 4 0 0 1 -8 0h-5v60z" fill="#e2e2e2"/><path d="m47 58v-56h-2a4 4 0 0 1 -8 0h-6a4 4 0 0 1 -8 0h-6a4 4 0 0 1 -8 0h-5v56z" fill="#f2f2f2"/><g fill="#ccc"><path d="m19 12h28v2h-28z"/><path d="m19 16h28v2h-28z"/><path d="m19 20h28v2h-28z"/><path d="m19 24h28v2h-28z"/></g><circle cx="12" cy="35" fill="#559b2d" r="3"/><path d="m9 35a2.965 2.965 0 0 0 .446 1.554 2.965 2.965 0 0 0 1.554.446 3 3 0 0 0 3-3 2.965 2.965 0 0 0 -.446-1.554 2.965 2.965 0 0 0 -1.554-.446 3 3 0 0 0 -3 3z" fill="#6bc13b"/><circle cx="12" cy="45" fill="#559b2d" r="3"/><circle cx="12" cy="55" fill="#559b2d" r="3"/><path d="m19 36h22v2h-22z" fill="#ccc"/><path d="m19 46h22v2h-22z" fill="#ccc"/><path d="m19 56h22v2h-22z" fill="#ccc"/><path d="m17 17v-1a4 4 0 0 0 -4-4v-2h-2v2a4 4 0 0 0 0 8v4a2 2 0 0 1 -2-2h-2a4 4 0 0 0 4 4v2h2v-2a4 4 0 0 0 0-8v-4a2 2 0 0 1 2 2v1zm-2 5a2 2 0 0 1 -2 2v-4a2 2 0 0 1 2 2zm-4-4a2 2 0 0 1 0-4z" fill="#559b2d"/><circle cx="50" cy="47" fill="#f4a93c" r="10"/><path d="m40 47a9.992 9.992 0 0 0 5.36 8.854 9.992 9.992 0 0 0 6.28-18.708 9.942 9.942 0 0 0 -11.64 9.854z" fill="#f6b940"/><path d="m54 45v-1a3 3 0 0 0 -3-3v-1h-2v1a3 3 0 0 0 -3 3v1a3 3 0 0 0 3 3v3a1 1 0 0 1 -1-1v-1h-2v1a3 3 0 0 0 3 3v1h2v-1a3 3 0 0 0 3-3v-1a3 3 0 0 0 -3-3v-3a1 1 0 0 1 1 1v1zm-2 4v1a1 1 0 0 1 -1 1v-3a1 1 0 0 1 1 1zm-3-3a1 1 0 0 1 -1-1v-1a1 1 0 0 1 1-1z" fill="#d5883e"/><path d="m9 45a2.965 2.965 0 0 0 .446 1.554 2.965 2.965 0 0 0 1.554.446 3 3 0 0 0 3-3 2.965 2.965 0 0 0 -.446-1.554 2.965 2.965 0 0 0 -1.554-.446 3 3 0 0 0 -3 3z" fill="#6bc13b"/><path d="m9 55a2.965 2.965 0 0 0 .446 1.554 2.965 2.965 0 0 0 1.554.446 3 3 0 0 0 3-3 2.965 2.965 0 0 0 -.446-1.554 2.965 2.965 0 0 0 -1.554-.446 3 3 0 0 0 -3 3z" fill="#6bc13b"/><path d="m61 47a11.01 11.01 0 0 0 -10-10.949v-34.051a1 1 0 0 0 -1-1h-5a1 1 0 0 0 -1 1 3 3 0 0 1 -6 0 1 1 0 0 0 -1-1h-6a1 1 0 0 0 -1 1 3 3 0 0 1 -6 0 1 1 0 0 0 -1-1h-6a1 1 0 0 0 -1 1 3 3 0 0 1 -6 0 1 1 0 0 0 -1-1h-5a1 1 0 0 0 -1 1v60a1 1 0 0 0 1 1h46a1 1 0 0 0 1-1v-4.051a11.01 11.01 0 0 0 10-10.949zm-56 14v-58h3.1a5 5 0 0 0 9.8 0h4.2a5 5 0 0 0 9.8 0h4.2a5 5 0 0 0 9.8 0h3.1v33.051a11.01 11.01 0 0 0 -9.949 9.949h-20.051v2h20.051a11.01 11.01 0 0 0 9.949 9.949v3.051zm45-5a9 9 0 1 1 9-9 9.011 9.011 0 0 1 -9 9z"/><path d="m51 41v-1h-2v1a3 3 0 0 0 -3 3v1a3 3 0 0 0 3 3v3a1 1 0 0 1 -1-1v-1h-2v1a3 3 0 0 0 3 3v1h2v-1a3 3 0 0 0 3-3v-1a3 3 0 0 0 -3-3v-3a1 1 0 0 1 1 1v1h2v-1a3 3 0 0 0 -3-3zm1 8v1a1 1 0 0 1 -1 1v-3a1 1 0 0 1 1 1zm-3-3a1 1 0 0 1 -1-1v-1a1 1 0 0 1 1-1z"/><path d="m19 12h28v2h-28z"/><path d="m19 16h28v2h-28z"/><path d="m19 20h28v2h-28z"/><path d="m19 24h28v2h-28z"/><path d="m12 31a4 4 0 1 0 4 4 4 4 0 0 0 -4-4zm0 6a2 2 0 1 1 2-2 2 2 0 0 1 -2 2z"/><path d="m12 41a4 4 0 1 0 4 4 4 4 0 0 0 -4-4zm0 6a2 2 0 1 1 2-2 2 2 0 0 1 -2 2z"/><path d="m12 51a4 4 0 1 0 4 4 4 4 0 0 0 -4-4zm0 6a2 2 0 1 1 2-2 2 2 0 0 1 -2 2z"/><path d="m19 36h22v2h-22z"/><path d="m19 56h22v2h-22z"/><path d="m13 12v-2h-2v2a4 4 0 0 0 0 8v4a2 2 0 0 1 -2-2h-2a4 4 0 0 0 4 4v2h2v-2a4 4 0 0 0 0-8v-4a2 2 0 0 1 2 2v1h2v-1a4 4 0 0 0 -4-4zm2 10a2 2 0 0 1 -2 2v-4a2 2 0 0 1 2 2zm-4-4a2 2 0 0 1 0-4z"/></svg>