<svg id="Capa_1" enable-background="new 0 0 512 512" viewBox="0 0 512 512" width="30" height="30" fill="#FFF"  
xmlns="http://www.w3.org/2000/svg"><g>
<path d="m53.8 258.9c11.3 5.7 24.2 6.6 36.2 2.6 39.8-13.1 43.7-68.7 6.2-87.3-16.6-8.3-35.9-6-50.1 4.9-27.6 20.7-23.4 64.6 7.7 79.8zm-10.5-58.2c.4-.8.8-1.5 1.3-2.3l2.9 3.3c.6.6 1.5.9 2.3.5 0 0 15.5-6.7 15.5-6.7.5-.2.8-.6 1-1l5.2-12.2c.1-.3.2-.6.2-.9 27.4-2.8 47.5 26.4 35 51-8.3 17.5-31.4 24.9-48.3 15.4.4-.4.6-.9.6-1.4l-.2-15.6c0-.5-.2-1-.6-1.4l-11.8-11.6c-.8-.8-2.1-.8-2.8 0 0 0-3.6 3.7-3.6 3.7-1-7 0-14.2 3.3-20.8z"/>
<path d="m72.5 226.1 16.1 8.6c.7.4 1.6.3 2.2-.2.3-.2 4.7-4.6 13.1-13 .6-.6.8-1.5.4-2.2l-7.5-17.1c-.3-.8-1.2-1.3-2.1-1.2l-18 2.4c-.9.1-1.5.8-1.7 1.6l-3.5 19c-.1.9.3 1.7 1 2.1z"/>
<path d="m467 260.7c-3.4-6.6-7-13.4-11.8-19.5-8.5-10.6-24.8-23.4-34.6-32.6.7-1.7.5-3.7-.5-5.3-17.7-28.7-27-43.7-58.7-57.4 3.4-4.2 5.9-9.1 7.8-14.2 17.3-40 1.3-74.6-49.4-69-13.3.6-21.1 7.7-25.2 22.6-3.1 11.6-3.7 24.4-2.8 37.6-10.5-4.3-21.8-6.5-33.1-6.3-1.2 0-2.4.4-3.4 1.1-20.4-4-40.5-4.5-65.9-1.6-14.8-11-37-11.3-53-.5-3.3 2.3-5.5 5.7-6.3 9.7-1 5.4 1.2 11.2 5.5 14.6 5.6 4.4 12.2 7.4 19.2 8.8 9 1.8 17.7 0 26.4.3 6.4.3 11.8 1.1 17.5 2 5.5.9 11.2 1.7 18 2.1 11.1.6 21.5 7.5 31.6 14.3-.1 2.6 1.6 5 4 5.9 5.5 1.9 10.1 3.6 15.5 5.5-5.8 16.4-8.5 33.6-13.4 50.2-3.9 13.3-11.3 25.3-21.3 34.8-2.1 1.7-5.6 6.4-3.3 11.2-16 7-33.4 10.6-50.8 10.5-5.3-.3-10.2 2.8-10.7 9.3 0 0-36 9.1-36 9.1-7.4 1.9-9 3.7-12.8 9-3.1 4.3-7.3 8.8-7.2 13.8-.4 21.5-10 42.3-25.6 57.1-.8 0-37.4 2.5-38.1 2.5-8.3-.1-14.8 6.2-13.9 15.1-.1.1-.2.1-.2.2-8.1 4.4-2.1 15.4 5.5 11.8 1.3 2 2.8 3.7 4.5 5.4-2.1 2.8-1.3 7 1.8 8.7 2.8 1.7 6.5.7 8.2-2.2.1-.2.3-.3.5-.5 1.6.5 21.6 6.5 23.7 7.1 6.1 1.9 12.4 3.6 18.8 4.3 1.4 3.1 3.9 6.9 7.7 6.8 4.2.1 7.3-4.7 5.4-8.5 6.1-2.6 10.4-8.2 11.6-14.7.7-2.9 1.5-6.5.2-10.2 2.2-4.5 4.9-9.3 8.4-12.9 3-3.1 5.8-5.9 8.7-8.7 3-3 6-6 9.1-9.2 5.4-5.5 9.8-12.3 11.4-19.9 10.5 2.6 21.5 2.8 32.2.6 1.4 2.2 4 3.4 6.6 2.8 5.2-1.2 10.6-2.1 16-2.7.7 9.7 6.4 22.2 15.9 26.1 2.8.9 5.9 1.1 8.8.7 12.9-1.2 24.6-5.2 37-7.7 13.4-3.2 26.9-1.5 40.7-.8 42.9.9 22.9-8.5 62.7 15.5 8.9 5.6 28.5 16.6 38.9 6.4 8.4 2.9 12.3-9.1 3.8-11.4-.1-1.9-.4-3.8-.9-5.6 6.3-3.9 1.5-13.5-5.4-10.7-3.8-5.1-8.5-9.2-12.8-13.2-6.3-5.8-12.2-12.1-17.5-18.8 3.8-3.2 3.5-9.6-1.7-11.2-2.4-.7-4.9.2-6.4 2-3.5-3.2-7.8-5.6-13.1-5.8-6.8-.2-11.4 3.4-16.8 5.8-10.4 4.2-21 .9-32.1-3.1 7.9-11.1 13.2-25.7 15.9-44.2 3-2.1 4.4-5.2 5.3-7.2 0 0 19.3-41.6 19.3-41.6 7.8 2.9 15.3 6.4 22.5 10.6 3.7 2.1 7.7-.1 9-3.9 6.8 2.6 13.5 11.7 17.9 19 10.6 17.7 25.7 30.2 46 40.8-1.9 4.6-3.5 7.9-5.2 13.2-1 3.1-2.2 7-1.6 11.3.6 4 2.5 7.2 4.4 9.9 2.1 3.2 8.9 12.9 19 12.5 5.9-.2 11.7-3.8 15-9.6 11.4-24-6.2-58.5-16.4-77.9zm-139.6-161.9c.9-.5 2.4-1.2 3.3-1.5 3.3 7 3.9 15.5 2.6 23.2-.5 2.9 1.1 5.8 4 6.8 2.8 1 5.9-.3 7.3-2.9 2.1-4.1 5.3-7.7 9.1-10.2 1.6 6.4-1.1 12.4-3.5 19.1-1.2 3.1-2.4 6.4-3.4 9.9-9.8 6.8-32.2 15.9-39.2.2-2.2-4.7-3.3-10-3.2-15.3-1-8.9-1.3-18.6-.3-27.3 5.5 2.5 13.6 2.9 23.3-2zm-22.7 65.2c.2-1.5.3-3.2.4-4.9 8.8 6.2 19.9 5.7 30.2 2.7-5.8 5.5-12.1 12.1-20.1 14.1-4 .8-8.1-.5-9.7-3.1-1.2-1.9-1.4-4.8-.8-8.8zm8.8-87.8c2.3-.9 4.7-1.4 7.1-1.5 28.6-2.9 45.2 6.6 43 32.5-4.8-7.8-13.3-6.2-18.2-2.1-1.3-5.8-2.8-16.1-10.4-19.1-5.3-2-9.9.4-13.1 2.1-5.4 2.7-12.3 3.8-15.7-.1 1.8-6.3 4.2-10.1 7.3-11.8zm-113.1 63c-5.8-.9-11.8-1.8-18.9-2.1-8.2-.4-16.9 1.4-24.6-.1-5.1-1-10-3.2-14.1-6.5-1.6-1.2-1.5-3.8.1-4.9 12.2-8.3 29.9-7.6 40.5 1.4 1.3 1.1 2.9 1.6 4.6 1.4 26-3.1 45.4-2.7 65.6 1.4 1.2 9 .7 17.9-1.5 25.9-10.2-6.8-21.7-13.7-35-14.5-6-.4-11.4-1.2-16.7-2zm-20.5 158.3c21-.1 42-5.1 60.8-14.4 24.5 11 52.6 8.4 78 4.2-7.1 40.5-29 55.6-67.7 58.3-17.1 1.3-34.4.8-51.3 4.3-10.1-13.9-20.3-34.9-19.8-52.4zm-97.8 123c-.1 0-20.7-6.2-20.8-6.2-2.4-.6-4.8-1.5-6.9-2.8-2.1-1.6-3.8-3.5-5.1-5.7-1.4-2.3-3.6-5-2.4-7.2.7-.3 1.5-.3 2.3-.3 0 0 36.5-2.4 36.5-2.4 5.3 8.8 15.4 16.3 25.3 18.8-.6 3.8-1.5 7.5-5.5 9-2 .8-4.6.9-8.2.4-5.3-.7-10.3-2-15.2-3.6zm48.7-40.8c-2.8 2.9-5.7 5.7-8.7 8.8-4.1 4.2-7.2 9.3-9.8 14.2-6-2-12.2-6.6-15.8-11.8 11.3-11.2 19.5-25.1 24-40.3 5.8 7.2 15.1 13.6 23.9 14.4-3.7 5.5-9.3 10-13.6 14.7zm25.5-34.3c-4-1.6-8.6 2-8 6.3.1.5.1 1 .1 1.5-10.6.7-19-9.9-24.7-18.3.3-2.6.4-5.2.5-7.8.8-1.8 3.5-5 5-7.1 2.5-3.5 2.5-3.5 6.1-4.4l33.3-8.5c2.4 14.8 8.3 28.9 16 41.6-9.6 1.2-19.2 0-28.3-3.3zm104.7 24.7c-7.9 2-15.4 3.8-23 4.5-1.2.2-2.4.2-3.5-.1-.8-.4-1.5-1-2.1-1.7-3.4-3.9-5.5-8.8-5.9-13.9 12-.7 24-.7 35.9-2.5.7 4.3 2.2 8.5 4.4 12.3-1.9.5-3.9.9-5.8 1.4zm78-4.7c-7.2.7-14.5.9-21.7.6-12.6-.6-25.3-2.2-38 0-2.6-3.6-4.5-7.6-5.2-11.9 13.6-3.4 24.2-8.6 32.9-16.6 10.1 4 20.8 7.7 31.6 7.4 5.6 3.5 11.4 12.9 13 20.4-4.3-.7-8.7-.3-12.6.1zm25-28.2c4 0 7.8 4.9 11.2 9.2 6 7.6 12.6 14.8 19.8 21.4 6.8 6.3 15 13.3 15.3 21.2-.5.9-.7 1.8-.7 2.7-8.3 1.1-16.5-4.3-23.7-8.5-6.7-4-13.4-8.1-20.1-12.1-.2-.5-.5-.9-.9-1.3-1.6-10.4-4.9-19.6-12-28 3.5-1.4 7.9-4.6 11.1-4.6zm15.7-106.2c-.2.4-.5.7-.7 1.1-7.8-4.1-15.9-7.6-24.2-10.3-2.9-1-6.1.4-7.3 3.2l-21.6 46.5c-.3.6-.9 2-1.3 2.4-26.3 5.3-56.5 9.3-81.6-3 22.8-22 25.1-48.7 32.8-77.5 2.4-8.9 5.5-17.7 10.5-25.6 4-6.9-5.7-13-10.2-6.4-1.3 2-2.5 4.1-3.6 6.3-3.5-1.2-6.8-2.4-10.2-3.6 3.8-10.7 5.1-22.9 3.6-35.1 9.4.8 18.7 3.5 27.1 7.8.5 2.7 1.1 5.3 2.1 7.8-2.3 5.4-1.5 12.2-2.1 17.6-2.7 14.6 5.4 25.7 20 25.9 8.9.1 17.3-5.6 23.1-10.6 7.3-6.2 13.9-13.2 19.7-20.9 27 11.7 35.1 22.2 50.9 47.8-10.9 6.9-19.9 15.9-27 26.6zm95 92.5c-.3 6-1.7 12.1-7.2 12.9-2.5 0-5.5-2.5-8.7-7.3-1.1-1.6-2.2-3.4-2.4-4.8-.2-1.6.5-3.8 1.2-6 2.2-6.9 4.7-10.9 7-18.1.9-2.9-.4-6-3.2-7.3-15.6-7.3-29.6-17.5-38.5-28.2-4.7-5.7-8.4-12.6-12.9-18.8-4.9-6.8-10.2-11.6-15.9-14.5 4.8-5.9 10.3-11.1 16.6-15.5 0 0 21.6 19.3 21.6 19.3 4.7 4.2 9.5 8.5 13.4 13.4 4.1 5.2 7.2 11.1 10.5 17.4 9.1 17.5 19.5 37.2 18.5 57.5z"/></g></svg>