
<?xml version="1.0" standalone="no"?>
<!DOCTYPE svg PUBLIC "-//W3C//DTD SVG 20010904//EN"
 "http://www.w3.org/TR/2001/REC-SVG-20010904/DTD/svg10.dtd">
<svg version="1.0" xmlns="http://www.w3.org/2000/svg"
 width="30.000000pt" height="30.000000pt" viewBox="0 0 405.000000 402.000000"
 preserveAspectRatio="xMidYMid meet">
<metadata>
Created by potrace 1.16, written by Peter Selinger 2001-2019
</metadata>
<g transform="translate(0.000000,402.000000) scale(0.100000,-0.100000)"
fill="#FFFFFF" stroke="none">
<path d="M1424 3496 c-320 -128 -586 -236 -592 -240 -5 -3 -17 -21 -26 -40
-14 -30 -16 -86 -16 -434 l0 -400 -81 -4 c-77 -3 -82 -5 -110 -36 l-29 -32 0
-300 0 -300 -168 0 c-92 0 -182 -4 -201 -10 -70 -20 -108 -90 -81 -148 6 -15
52 -87 101 -159 49 -73 89 -135 89 -137 0 -2 -41 -66 -90 -141 -109 -164 -114
-174 -106 -218 8 -43 43 -76 93 -88 21 -5 266 -9 544 -9 l506 0 63 -82 c133
-174 381 -398 590 -534 103 -67 137 -67 240 0 240 157 446 347 631 584 l25 33
510 -1 c306 0 523 4 543 10 70 20 108 90 82 148 -7 14 -52 86 -102 160 -49 73
-89 135 -89 138 0 2 33 53 74 114 117 172 129 195 123 237 -8 45 -40 80 -86
93 -20 5 -111 10 -203 10 l-168 0 0 300 0 300 -29 32 c-28 31 -33 33 -110 36
l-81 4 0 400 c0 438 -2 453 -59 482 -72 37 -1161 466 -1182 466 -13 0 -286
-106 -605 -234z m1116 -204 l495 -198 3 -357 2 -357 -110 0 -110 0 0 253 c0
232 -2 254 -20 284 -10 18 -32 38 -47 46 -15 8 -177 73 -358 146 -240 95 -342
131 -370 130 -27 0 -157 -48 -390 -142 -319 -130 -352 -145 -372 -176 -22 -33
-23 -41 -23 -287 l0 -254 -110 0 -110 0 2 357 3 357 490 197 c270 108 499 198
510 198 11 1 243 -88 515 -197z m-227 -393 l277 -111 0 -204 0 -204 -560 0
-560 0 0 203 0 204 273 110 c149 61 277 111 282 112 6 1 135 -49 288 -110z
m957 -969 l0 -220 -1240 0 -1240 0 0 220 0 220 1240 0 1240 0 0 -220z m-2322
-554 c20 -55 63 -155 96 -223 l61 -123 -332 0 c-183 0 -333 2 -333 5 0 2 27
46 60 96 43 65 60 101 60 124 0 23 -17 59 -60 124 -33 50 -60 94 -60 96 0 3
106 4 236 3 l236 -3 36 -99z m485 12 c103 -218 226 -389 407 -569 186 -185
195 -185 380 0 177 175 315 368 410 576 l40 85 120 0 c66 0 120 -2 120 -4 0
-11 -76 -181 -117 -261 -155 -305 -395 -581 -682 -785 l-75 -53 -31 18 c-117
62 -389 309 -508 461 -87 112 -183 263 -247 391 -47 95 -100 217 -100 231 0 1
54 2 119 2 l120 0 44 -92z m980 75 c-33 -92 -188 -315 -294 -425 l-89 -93 -89
93 c-86 89 -195 239 -257 352 -55 100 -96 90 346 90 367 0 389 -1 383 -17z
m1207 12 c0 -2 -27 -46 -60 -96 -43 -65 -60 -101 -60 -124 0 -23 17 -59 60
-124 33 -50 60 -94 60 -96 0 -3 -150 -5 -333 -5 l-332 0 60 123 c33 67 74 158
89 202 16 44 33 90 37 103 8 22 9 22 244 22 129 0 235 -2 235 -5z"/>
</g>
</svg>
