<svg version="1.0" xmlns="http://www.w3.org/2000/svg"
 width="30.000000pt" height="30.000000pt" viewBox="0 0 300.000000 300.000000"
 preserveAspectRatio="xMidYMid meet">
<metadata>
Created by potrace 1.10, written by Peter Selinger 2001-2011
</metadata>
<g transform="translate(0.000000,300.000000) scale(0.100000,-0.100000)"
fill="#FFFFFF" stroke="none">
<path d="M2273 2839 c-219 -20 -414 -158 -513 -364 -51 -107 -65 -170 -63
-295 0 -84 6 -121 27 -186 102 -318 432 -508 761 -439 183 38 361 177 442 345
53 111 64 159 64 293 -1 171 -43 296 -140 410 -149 177 -344 257 -578 236z
m267 -57 c214 -69 371 -248 421 -482 25 -117 25 -97 -1 -215 -31 -139 -84
-240 -174 -330 -246 -244 -634 -245 -881 -1 -122 120 -179 258 -179 436 1 189
47 303 179 436 90 90 183 144 295 169 90 20 255 14 340 -13z"/>
<path d="M2241 2644 c-78 -17 -95 -38 -92 -117 2 -56 -1 -68 -24 -95 -32 -38
-81 -55 -137 -47 -55 8 -72 -8 -93 -91 -21 -83 -14 -190 17 -252 23 -46 23
-47 68 -44 69 4 106 -6 139 -37 29 -27 31 -33 31 -103 0 -59 4 -78 18 -91 42
-38 194 -53 287 -28 77 21 85 32 85 117 0 67 2 75 30 103 33 33 69 43 140 39
45 -3 45 -3 70 47 21 42 25 64 25 140 -1 99 -16 166 -45 195 -16 16 -24 17
-54 8 -48 -15 -107 3 -140 43 -22 26 -26 40 -26 99 0 61 -3 71 -25 88 -28 22
-126 44 -182 41 -22 -2 -63 -8 -92 -15z m229 -36 c48 -14 51 -19 40 -57 -35
-122 102 -237 221 -187 13 6 19 -5 33 -58 20 -81 20 -145 1 -221 -9 -33 -17
-61 -19 -62 -2 -2 -21 0 -43 5 -45 10 -113 -6 -145 -35 -43 -39 -62 -113 -45
-175 7 -25 4 -28 -30 -38 -72 -22 -179 -24 -249 -5 -53 14 -64 21 -59 34 18
43 16 87 -7 130 -39 75 -103 106 -182 89 -21 -5 -40 -7 -42 -5 -2 2 -11 32
-20 68 -11 44 -15 85 -11 129 7 81 30 147 48 141 8 -2 28 -6 46 -9 105 -14
201 96 175 200 -10 37 -9 40 16 50 70 27 193 30 272 6z"/>
<path d="M2270 2337 c-60 -31 -93 -93 -87 -160 8 -85 64 -138 154 -145 48 -3
64 0 92 20 53 36 74 71 78 130 5 71 -25 124 -87 156 -56 28 -96 28 -150 -1z
m150 -33 c112 -67 58 -244 -75 -244 -78 0 -135 59 -135 139 0 37 6 49 39 82
35 35 44 39 91 39 30 0 64 -7 80 -16z"/>
<path d="M0 2635 c0 -12 17 -15 95 -15 l95 0 0 -1033 c0 -989 1 -1035 18
-1050 17 -16 20 -16 40 6 11 12 82 108 157 212 75 105 140 191 145 193 4 2 37
-37 74 -87 36 -49 71 -93 78 -97 17 -11 44 24 311 395 131 182 241 331 245
331 4 0 17 -15 30 -33 172 -240 178 -248 198 -240 7 2 67 80 133 172 67 92
130 176 141 186 27 24 83 24 110 0 32 -29 26 -81 -18 -142 -251 -351 -368
-513 -374 -513 -3 0 -50 60 -103 134 -52 74 -102 137 -110 140 -17 6 -50 -31
-135 -152 -36 -52 -92 -130 -125 -175 -34 -45 -112 -153 -174 -240 -62 -86
-116 -157 -120 -157 -4 0 -29 30 -56 68 -66 92 -95 121 -111 115 -12 -4 -98
-117 -183 -241 -22 -32 -22 -34 -6 -53 18 -19 41 -19 1177 -19 l1158 0 0 -75
0 -75 -582 0 c-321 0 -925 -1 -1343 -3 -715 -2 -760 -3 -763 -19 -3 -17 67
-18 1357 -18 l1361 0 0 110 0 110 -1175 0 c-646 0 -1175 2 -1175 5 0 15 184
255 190 248 4 -4 40 -54 80 -109 l73 -102 269 377 c148 207 272 376 275 376 3
0 52 -65 110 -145 57 -80 107 -146 111 -147 4 -1 23 21 43 50 19 29 117 166
217 305 150 209 182 259 182 287 0 88 -76 139 -155 103 -15 -7 -78 -85 -156
-195 l-131 -183 -110 154 -110 154 -109 -151 c-60 -84 -182 -254 -272 -379
-89 -125 -164 -227 -167 -227 -3 0 -39 49 -81 110 l-76 109 -164 -229 -164
-230 -3 1050 -2 1049 -110 0 c-91 0 -110 -3 -110 -15z"/>
</g>
</svg>