<?xml version="1.0" encoding="utf-8"?>

<!DOCTYPE svg PUBLIC "-//W3C//DTD SVG 1.1//EN" "http://www.w3.org/Graphics/SVG/1.1/DTD/svg11.dtd">

<!-- License: Apache. Made by vaadin: https://github.com/vaadin/vaadin-icons -->
<svg width="30px" height="30px" viewBox="0 0 18 18" version="1.1" xmlns="http://www.w3.org/2000/svg" xmlns:xlink="http://www.w3.org/1999/xlink">
<path fill="#FFF" d="M14 1v3h-3v-3h-6v3h-3v-3h-2v15h16v-15h-2zM3 15h-2v-2h2v2zM3 12h-2v-2h2v2zM3 9h-2v-2h2v2zM6 15h-2v-2h2v2zM6 12h-2v-2h2v2zM6 9h-2v-2h2v2zM9 15h-2v-2h2v2zM9 12h-2v-2h2v2zM9 9h-2v-2h2v2zM12 15h-2v-2h2v2zM12 12h-2v-2h2v2zM12 9h-2v-2h2v2zM15 15h-2v-2h2v2zM15 12h-2v-2h2v2zM15 9h-2v-2h2v2z"></path>
<path fill="#FFF" d="M3 0h1v3h-1v-3z"></path>
<path fill="#FFF" d="M12 0h1v3h-1v-3z"></path>
</svg>