<svg id="Outline" height="512" viewBox="0 0 512 512" width="512" xmlns="http://www.w3.org/2000/svg"><path d="m488 368h-133.02a8 8 0 0 0 -8 8v48h-19.221a8 8 0 0 0 0 16h19.221v48a8 8 0 0 0 8 8h133.02a8 8 0 0 0 8-8v-112a8 8 0 0 0 -8-8zm-8 112h-117.02v-96h117.02z"/><path d="m184.241 424h-19.221v-48a8 8 0 0 0 -8-8h-133.02a8 8 0 0 0 -8 8v112a8 8 0 0 0 8 8h133.02a8 8 0 0 0 8-8v-48h19.221a8 8 0 0 0 0-16zm-35.221 56h-117.02v-96h117.02z"/><path d="m247.872 398.4a8 8 0 0 0 -10 5.291l-10.057 32.656-9.668-32.577a8 8 0 1 0 -15.338 4.551l14.879 50.143a10.406 10.406 0 0 0 9.974 7.491h.057a10.4 10.4 0 0 0 10-7.388l15.444-50.167a8 8 0 0 0 -5.291-10z"/><path d="m290.341 398.045h-18.668a14.905 14.905 0 0 0 -14.888 14.888v12.179a14.905 14.905 0 0 0 14.888 14.888h17.556v9.955h-16.473a8 8 0 0 0 -15.971.689v.752a13.53 13.53 0 0 0 3.064 9.808c1.849 2.167 5.333 4.751 11.425 4.751h19.067a14.905 14.905 0 0 0 14.888-14.888v-12.179a14.905 14.905 0 0 0 -14.888-14.888h-17.556v-9.955h16.445a8 8 0 0 0 16-.163v-.949a14.905 14.905 0 0 0 -14.889-14.888z"/><path d="m322.61 344.313v-17.873a8 8 0 0 0 -5.416-7.571l-25.941-8.852-4.135-9.625c4.815-8.546 17.158-30.7 23.476-44.309 3.433-7.4 6.5-14.622 9.251-21.627a7.966 7.966 0 0 0 3.269-1.25c.659-.437 16.324-10.974 31.8-35.074 14.027-21.85 30.75-59.748 30.75-116.214 0-27.428-10.226-42.932-18.806-51.108a52.6 52.6 0 0 0 -35.911-14.5c-19.633 0-35.606 14.136-35.606 31.51a28.326 28.326 0 0 0 3.048 12.8l.021.046c3.584 7.4 9.752 10.585 14.255 12.907 4.468 2.3 5.667 3.152 6.23 5.167.97 3.471.023 4.973-1.145 6.078a8.888 8.888 0 0 1 -1.5 1.121l-42.48-21.809a24 24 0 1 0 -35.521-.009l-42.5 21.818a7.1 7.1 0 0 1 -2.484-2.341c-.252-.44-1.021-1.779-.16-4.859.563-2.015 1.762-2.863 6.23-5.167 4.5-2.322 10.671-5.5 14.255-12.907l.038-.081a28.307 28.307 0 0 0 3.031-12.761c0-17.374-15.973-31.51-35.606-31.51a52.6 52.6 0 0 0 -35.911 14.5c-8.58 8.176-18.806 23.68-18.806 51.108 0 56.466 16.723 94.364 30.75 116.214 15.473 24.1 31.138 34.637 31.8 35.074a7.945 7.945 0 0 0 3.268 1.248c2.75 7.006 5.819 14.234 9.252 21.629 6.318 13.608 18.661 35.763 23.476 44.309l-4.135 9.625-25.941 8.852a8 8 0 0 0 -5.416 7.571v17.873a8 8 0 0 0 8 8h117.22a8 8 0 0 0 8-8.003zm-9.742-290.5c-.042-.09-.086-.18-.131-.268a12.505 12.505 0 0 1 -1.4-5.722c0-8.552 8.8-15.51 19.606-15.51a36.513 36.513 0 0 1 24.873 10.08c9.186 8.754 13.844 22.053 13.844 39.525 0 52.084-15.069 86.816-27.712 106.782a138.481 138.481 0 0 1 -11.808 16.03c11.218-37.251 12.8-63.155 12.882-64.668a7.932 7.932 0 0 0 -5.675-8.1 29.681 29.681 0 0 1 -12.8-9.049 8.561 8.561 0 0 1 -1.523-8.982 6.769 6.769 0 0 0 .916-3.724v-10.233a23.115 23.115 0 0 0 8.669-8.415c1.991-3.459 3.891-9.247 1.691-17.126-2.517-9-9.331-12.516-14.307-15.081-3.722-1.921-5.912-3.138-7.125-5.539zm-56.854-13.813a8 8 0 1 1 -8 8 8.009 8.009 0 0 1 8-8zm-87.037 100.062c.084 1.513 1.664 27.417 12.882 64.667a138.462 138.462 0 0 1 -11.808-16.029c-12.643-19.966-27.712-54.7-27.712-106.782 0-17.472 4.658-30.771 13.844-39.525a36.513 36.513 0 0 1 24.873-10.08c10.81 0 19.606 6.958 19.606 15.51a12.494 12.494 0 0 1 -1.4 5.72c-.049.1-.1.193-.142.291-1.215 2.387-3.4 3.6-7.116 5.518-4.976 2.565-11.79 6.079-14.307 15.081-2.2 7.879-.3 13.662 1.691 17.126a23.115 23.115 0 0 0 8.669 8.415v10.234a6.769 6.769 0 0 0 .916 3.724 8.561 8.561 0 0 1 -1.523 8.982 29.7 29.7 0 0 1 -12.741 9.031 8 8 0 0 0 -5.732 8.117zm137.633 196.251h-101.22v-4.149l23.888-8.152a8 8 0 0 0 4.767-4.414l5.166-12.025h14.882a8 8 0 1 0 0-16h-15.811c-5.047-8.984-16.572-29.752-22.364-42.228-22.457-48.365-28.816-90.1-30.449-104.661a45.2 45.2 0 0 0 14.476-11.775 24.68 24.68 0 0 0 4.113-24.389v-5.745h37.63a8 8 0 0 0 0-16h-12.532l26.844-13.782 26.844 13.782h-13.915a8 8 0 0 0 0 16h39.013v5.745a24.68 24.68 0 0 0 4.113 24.389 45.189 45.189 0 0 0 14.483 11.778c-1.616 14.537-7.935 56.156-30.456 104.658-7.5 16.165-24.659 46.295-24.831 46.6a8 8 0 0 0 -.4 7.12l7.1 16.536a8 8 0 0 0 4.767 4.414l23.888 8.152z"/><path d="m292.014 169.326a36 36 0 1 0 -36 36 36.041 36.041 0 0 0 36-36zm-36 20a20 20 0 1 1 20-20 20.022 20.022 0 0 1 -20 20z"/></svg>