<?xml version="1.0" encoding="iso-8859-1"?>
<!-- Generator: Adobe Illustrator 19.0.0, SVG Export Plug-In . SVG Version: 6.00 Build 0)  -->
<svg version="1.1" id="Capa_1" xmlns="http://www.w3.org/2000/svg" xmlns:xlink="http://www.w3.org/1999/xlink" x="0px" y="0px"
	 viewBox="0 0 500 550" style="enable-background:new 0 0 500 550;" xml:space="preserve"
	 height="30px" width="30px" fill="none">
<path style="fill:#FCC938;" d="M354.444,368.805l-180.133,72.87l-1.876,0.76c-21.728,9.014-46.65-1.278-55.664-23.016
	L10.888,164.389c-9.024-21.728,1.278-46.65,23.006-55.664l161.669-67.121c21.738-9.024,46.661,1.278,55.674,22.996l12.806,27.457
	l75.192,161.162L354.444,368.805z"/>
<path style="fill:#E2A91B;" d="M354.444,368.805l-180.133,72.87l-7.138-2.15c-22.519-6.793-35.274-30.549-28.481-53.079
	l79.755-264.369c6.043-20.035,25.51-32.344,45.596-30.022l75.192,161.162L354.444,368.805z"/>
<path style="fill:#ED3B3B;" d="M502.578,178.98l-79.755,264.379c-6.793,22.519-30.56,35.274-53.079,28.481l-139.779-42.169
	l-27.812-8.395c-22.529-6.793-35.274-30.549-28.481-53.079l79.755-264.369c6.793-22.519,30.549-35.274,53.068-28.481l167.601,50.564
	c1.531,0.466,3.022,1.004,4.461,1.632C498.258,135.939,508.904,157.992,502.578,178.98z"/>
<path d="M156.174,453.296c-19.693,0-38.419-11.661-46.429-30.956l-66.16-159.364c-1.61-3.879,0.229-8.328,4.107-9.938
	c3.88-1.612,8.328,0.229,9.939,4.107l66.16,159.364c7.4,17.822,27.913,26.302,45.729,18.906l8.252-3.426
	c3.88-1.611,8.328,0.229,9.939,4.107c1.61,3.878-0.229,8.328-4.107,9.939l-8.252,3.426
	C169.08,452.063,162.574,453.296,156.174,453.296z"/>
<path d="M41.505,245.736c-2.982,0-5.811-1.765-7.026-4.69L3.863,167.3c-5.141-12.382-5.151-26.024-0.029-38.415
	c5.12-12.391,14.76-22.046,27.142-27.186l161.676-67.121c25.569-10.615,54.999,1.546,65.612,27.107
	c1.61,3.878-0.229,8.328-4.107,9.938c-3.881,1.611-8.329-0.229-9.939-4.107c-7.397-17.816-27.913-26.292-45.733-18.892
	L36.807,115.745c-8.63,3.583-15.349,10.313-18.918,18.949c-3.57,8.637-3.562,18.145,0.021,26.776l30.615,73.744
	c1.61,3.879-0.229,8.328-4.107,9.938C43.465,245.549,42.476,245.736,41.505,245.736z"/>
<path d="M382.023,481.26c-4.791,0-9.655-0.691-14.471-2.144l-167.599-50.557c-12.836-3.872-23.396-12.512-29.735-24.326
	c-6.339-11.815-7.697-25.391-3.824-38.228l79.75-264.376c3.872-12.836,12.512-23.397,24.327-29.735
	c11.815-6.339,25.394-7.697,38.227-3.825l99.731,30.084c4.021,1.213,6.297,5.456,5.085,9.476c-1.214,4.021-5.456,6.295-9.477,5.084
	l-99.731-30.084c-8.947-2.699-18.409-1.752-26.645,2.666c-8.235,4.419-14.257,11.779-16.956,20.727l-79.751,264.377
	c-2.699,8.947-1.753,18.41,2.666,26.645s11.779,14.257,20.725,16.956l167.599,50.557c18.47,5.574,38.03-4.923,43.6-23.392
	l79.75-264.376c5.571-18.471-4.922-38.029-23.391-43.6l-42.487-12.817c-4.021-1.213-6.297-5.456-5.085-9.476
	c1.213-4.021,5.456-6.295,9.477-5.084l42.487,12.817c26.499,7.994,41.553,36.055,33.561,62.554l-79.75,264.375
	C423.564,467.238,403.584,481.259,382.023,481.26z"/>
<g>
</g>
<g>
</g>
<g>
</g>
<g>
</g>
<g>
</g>
<g>
</g>
<g>
</g>
<g>
</g>
<g>
</g>
<g>
</g>
<g>
</g>
<g>
</g>
<g>
</g>
<g>
</g>
<g>
</g>
</svg>
