<svg id="Capa_1" enable-background="new 0 0 512 512" height="512" viewBox="0 0 512 512" width="512" xmlns="http://www.w3.org/2000/svg"><g><path d="m446.165 65.014c-4.143 0-7.5 3.358-7.5 7.5v246.029c0 23.444-19.073 42.518-42.517 42.518h-144.571c.906-1.266 1.912-2.47 3.033-3.587 9.77-9.738 19.58-20.438 30.875-33.674 18.94-22.196 16.293-55.663-5.902-74.605-22.196-18.939-55.663-16.292-74.604 5.902-14.723 17.252-28.102 31.051-39.737 40.988-.139.116-.499.424-1.085.151-.556-.257-.556-.678-.556-.88v-237.838c-.001-23.445 19.072-42.518 42.517-42.518h190.031c16.478 0 31.62 9.659 38.574 24.607 1.746 3.754 6.203 5.385 9.964 3.637 3.755-1.748 5.383-6.208 3.636-9.964-9.406-20.217-29.885-33.28-52.174-33.28h-190.031c-31.715 0-57.518 25.802-57.518 57.518v79.916c-13.813 2.415-26.336 10.264-34.421 21.881-17.376 24.968-39.653 68.567-50.064 116.054-15.882 72.448 3.958 117.217 23.398 142.017 2.219 2.83 3.817 6.06 4.712 9.44-10.998 3.087-19.088 13.197-19.088 25.168v27.6c0 14.195 9.085 26.611 22.607 30.896 3.945 1.253 8.163-.935 9.415-4.884 1.252-3.948-.935-8.164-4.884-9.415-7.261-2.301-12.139-8.971-12.139-16.598v-27.6c0-6.145 4.999-11.143 11.143-11.143h127.395c6.145 0 11.144 4.999 11.144 11.143v27.6c0 9.598-7.809 17.407-17.406 17.407h-86.062c-4.143 0-7.5 3.358-7.5 7.5s3.358 7.5 7.5 7.5h86.062c17.869 0 32.406-14.538 32.406-32.407v-27.6c0-12.272-8.501-22.59-19.922-25.389v-19.366c7.415-10.692 11.217-22.247 13.165-31.177h150.087c31.715 0 57.517-25.802 57.517-57.518v-246.029c0-4.142-3.357-7.5-7.5-7.5zm-202.145 281.836c-6.286 6.265-10.434 14.184-11.995 22.899-1.47 8.202-4.854 20.167-12.637 30.584-.968 1.296-1.491 2.871-1.491 4.488v21.029h-110.554c-1.202-6.379-3.931-12.498-8.025-17.719-11.022-14.062-18.649-30.625-22.668-49.227-5.103-23.617-4.39-50.642 2.117-80.324 9.941-45.34 31.17-86.911 47.725-110.697 5.379-7.729 13.194-13.015 22.108-15.167 0 .117 0 142.752 0 142.645.004 13.585 15.89 21 26.354 12.155 12.261-10.471 26.202-24.831 41.434-42.681 13.572-15.904 37.554-17.8 53.457-4.229 15.904 13.572 17.802 37.554 4.23 53.457-11.028 12.921-20.578 23.34-30.055 32.787zm57.113-203.666c-8.478 0-16.539 3.671-22.119 10.073-2.721 3.123-2.397 7.86.727 10.582 3.122 2.722 7.859 2.396 10.582-.726 2.729-3.132 6.67-4.928 10.811-4.928s8.081 1.796 10.809 4.928c1.482 1.702 3.565 2.573 5.657 2.573 1.748 0 3.503-.608 4.924-1.846 3.123-2.721 3.449-7.459.728-10.582-5.579-6.402-13.64-10.074-22.119-10.074zm-69.949 7.04c0 4.142 3.357 7.5 7.5 7.5s7.5-3.358 7.5-7.5v-8.839l2.381.638c.65.174 1.304.257 1.946.257 3.311 0 6.342-2.21 7.239-5.561 1.072-4.001-1.302-8.114-5.303-9.186l-24.064-6.448c-4.004-1.068-8.113 1.302-9.186 5.303-1.072 4.001 1.302 8.114 5.303 9.186l7.078 1.897c-.252.751-.394 1.551-.394 2.387zm151.885-23.835c-1.071-4.002-5.183-6.372-9.185-5.304l-24.066 6.448c-4.001 1.072-6.375 5.185-5.303 9.186.897 3.351 3.928 5.561 7.239 5.561.642 0 1.296-.083 1.946-.257l2.381-.638v8.839c0 4.142 3.357 7.5 7.5 7.5s7.5-3.358 7.5-7.5v-10.366c0-.835-.142-1.636-.394-2.386l7.079-1.897c4.001-1.073 6.375-5.185 5.303-9.186z"/></g></svg>