<svg id="Layer_5" enable-background="new 0 0 64 64" height="30" viewBox="0 0 64 64" width="30" xmlns="http://www.w3.org/2000/svg"><g><circle cx="36" cy="14" r="1"/><path d="m45 27.11v-1.556l2.086-1.304c3.704-2.314 5.914-6.303 5.914-10.669 0-6.937-5.644-12.581-12.581-12.581h-4.419c-3.86 0-7 3.14-7 7 0 1.383.945 2.539 2.22 2.884-.139.346-.22.721-.22 1.116v.171c0 1.557-.606 3.021-1.707 4.122l-.981.981 2.688 1.344v3.028c0 1.009.359 1.927.937 2.666-.561.355-.937.976-.937 1.688v3.108c-2.607 1.617-4.637 4.032-5.779 6.847l-2.183-6.985.825-3.301c.091-.361.137-.734.137-1.107 0-1.964-1.255-3.628-3-4.268v-12.294h-14v18h4.033c.16 1.713 1.169 3.219 2.731 4l1.384.692 3.711 14.102c.807 3.065 3.584 5.206 6.753 5.206 2.093 0 4.074-.961 5.388-2.553v15.553h20v-4.16c3.426-.754 6-3.809 6-7.458v-10.34c0-6.959-5.201-12.907-12-13.932zm-36-3.11v-14h10v10h-2c-1.654 0-3 1.346-3 3 0 .352.072.686.184 1zm20.885 21.58c-.895 1.493-2.532 2.42-4.273 2.42-2.262 0-4.243-1.528-4.819-3.716l-3.941-14.976-2.194-1.097c-.88-.44-1.469-1.262-1.618-2.211h3.96 3v-2h-3c-.551 0-1-.449-1-1s.449-1 1-1h2.438c1.413 0 2.562 1.149 2.562 2.562 0 .209-.026.418-.077.621l-.961 3.848 5.083 16.268 1.909-.596-1.64-5.249c.023-.15.064-.294.092-.443l4.365 5.093zm1.187-7.581h-.072v3.298l-3.93-4.585c.824-2.036 2.188-3.828 3.93-5.179v1.297c0 .77.209 1.518.593 2.171-.368.614-.593 1.323-.593 2.089 0 .307.032.609.072.909zm-.072-29.999c0-2.757 2.243-5 5-5h4.419c5.834 0 10.581 4.747 10.581 10.581 0 3.672-1.859 7.027-4.974 8.973l-1.026.641v-3.781l1-1c.645-.645 1-1.502 1-2.414 0-1.304-.836-2.416-2-2.829v-.171c0-2.206-1.794-4-4-4h-4-5c-.551 0-1-.449-1-1zm.58 8.672c.923-1.309 1.42-2.866 1.42-4.5v-.172c0-.551.449-1 1-1h7c1.103 0 2 .897 2 2v2h1c.551 0 1 .449 1 1 0 .372-.151.737-.414 1l-1.586 1.586v8.879l-4.779 3.185c-.325-.442-.736-.821-1.221-1.101v-3.549c0-.106-.015-.209-.031-.311.001 0 .002 0 .003-.001l4.4-1.76-.743-1.857-4.4 1.76c-.28.112-.574.169-.875.169-1.177 0-2.146-.871-2.318-2h1.964c2.206 0 4-1.794 4-4h-2c0 1.103-.897 2-2 2h-2v-2.618zm12.984 12.41-1.215 6.074-3.681-3.067 4.575-3.049c.108.012.214.027.321.042zm-8.899 2.044c.798.284 1.335 1.037 1.335 1.874 0 .153-.024.302-.057.449-.563-.286-1.192-.449-1.853-.449-.719 0-1.384.202-1.972.529-.073-.226-.118-.461-.118-.699v-6.83h2v4.889zm13.335 29.874h-16v-18.955l10.204 13.866c1.363 1.851 3.509 2.981 5.796 3.09zm6-9.618c0 3.11-2.531 5.641-5.642 5.641-1.787 0-3.485-.858-4.543-2.297l-10.878-14.782c-.613-.833-.937-1.82-.937-2.854 0-1.152.938-2.09 2.09-2.09.797 0 1.513.442 1.869 1.155l.423.845h.618c.551 0 1 .448 1 1v.528c0 .154-.037.309-.105.446l-1.146 2.293 11.395 9.323.908 2.726 1.897-.633-.949-2.846v-2.837h4zm0-6.382h-4v-8h-2v10.89l-8.748-7.157.432-.863c.207-.415.316-.879.316-1.342v-.528c0-1.433-1.009-2.633-2.353-2.93-.038-.067-.085-.127-.126-.192.146-.274.254-.565.333-.865l5.797 4.83 1.865-9.323c4.918 1.557 8.484 6.188 8.484 11.522z"/></g></svg>