<svg id="Capa_1" enable-background="new 0 0 512 512" height="512" viewBox="0 0 512 512" width="512" xmlns="http://www.w3.org/2000/svg"><g><path d="m497 422h-76v-75c0-8.284-6.716-15-15-15h-135v-30h45c8.284 0 15-6.716 15-15s-6.716-15-15-15h-120c-8.284 0-15 6.716-15 15s6.716 15 15 15h45v30h-135c-8.284 0-15 6.716-15 15v75h-76c-8.284 0-15 6.716-15 15v60c0 8.284 6.716 15 15 15s15-6.716 15-15v-45h151v45c0 8.284 6.716 15 15 15s15-6.716 15-15v-60c0-8.284-6.716-15-15-15h-75v-60h270v60h-75c-8.284 0-15 6.716-15 15v60c0 8.284 6.716 15 15 15s15-6.716 15-15v-45h151v45c0 8.284 6.716 15 15 15s15-6.716 15-15v-60c0-8.284-6.716-15-15-15z"/><path d="m181 120h1.509c5.98 29.344 29.147 52.51 58.491 58.491v33.509h-15c-8.284 0-15 6.716-15 15s6.716 15 15 15h60c8.284 0 15-6.716 15-15s-6.716-15-15-15h-15v-33.509c29.344-5.98 52.51-29.147 58.491-58.491h1.509c33.084 0 60-26.916 60-60v-45c0-8.284-6.716-15-15-15-12.21 0-226.325 0-240 0-8.284 0-15 6.716-15 15v45c0 33.084 26.916 60 60 60zm180-60c0 16.542-13.458 30-30 30v-60h30zm-60 45c0 24.813-20.187 45-45 45s-45-20.187-45-45v-75h90zm-150-75h30v60c-16.542 0-30-13.458-30-30z"/></g></svg>